<?xml version="1.0" standalone="no"?>
<!DOCTYPE svg PUBLIC "-//W3C//DTD SVG 20010904//EN"
 "http://www.w3.org/TR/2001/REC-SVG-20010904/DTD/svg10.dtd">
<svg version="1.0" xmlns="http://www.w3.org/2000/svg"
 width="960.000000pt" height="960.000000pt" viewBox="0 0 960.000000 960.000000"
 preserveAspectRatio="xMidYMid meet">

<g transform="translate(0.000000,960.000000) scale(0.100000,-0.100000)"
fill="#000000" stroke="none">
<path d="M3875 7753 c-16 -2 -82 -10 -145 -19 -595 -81 -1166 -354 -1609 -771
-31 -29 -49 -53 -41 -53 20 0 32 10 53 43 10 15 23 25 29 21 7 -4 8 -3 4 4 -7
11 6 17 27 13 5 -1 6 3 3 7 -5 9 32 50 40 45 2 -2 10 -3 17 -3 9 0 9 2 0 8 -8
5 -1 15 23 31 19 13 34 28 34 33 0 5 4 7 10 3 5 -3 21 8 36 25 15 16 32 30 37
30 5 0 23 11 39 25 16 14 35 22 41 18 7 -3 9 -3 5 2 -9 10 115 98 160 113 18
6 40 18 48 27 9 8 21 12 27 8 7 -3 9 -2 4 2 -4 5 16 20 45 35 29 14 65 34 80
44 15 10 33 14 39 10 8 -4 9 -3 5 4 -4 7 -1 12 9 12 8 0 23 4 33 9 9 5 37 18
62 29 25 11 62 27 83 36 20 9 42 14 49 10 6 -4 8 -3 5 3 -4 6 12 16 36 23 23
7 67 21 96 32 30 11 65 17 77 14 13 -4 26 -2 29 4 4 6 -1 7 -12 4 -15 -5 -16
-4 -3 5 8 6 30 11 48 11 18 0 31 4 28 9 -3 5 4 9 17 9 12 -1 45 5 72 11 56 13
176 35 276 49 116 17 361 21 609 10 154 -6 155 -6 70 7 -78 12 -511 18 -595 8z"/>
<path d="M4557 7726 c-3 -7 15 -12 47 -14 79 -4 167 -23 455 -102 40 -11 79
-24 85 -28 6 -5 47 -22 91 -37 44 -16 83 -33 86 -38 4 -5 13 -7 20 -4 8 3 -2
12 -26 22 -22 9 -53 22 -70 30 -80 36 -335 117 -420 133 -27 6 -88 17 -135 26
-125 24 -129 24 -133 12z"/>
<path d="M5360 7496 c0 -2 35 -18 78 -37 42 -18 82 -38 89 -45 6 -6 25 -17 42
-24 17 -7 28 -17 24 -23 -3 -6 -1 -7 6 -3 10 6 85 -36 139 -77 6 -5 12 -6 12
-1 0 11 -44 39 -155 103 -126 73 -235 122 -235 107z"/>
<path d="M5760 7283 c1 -10 50 -46 56 -41 2 3 -10 14 -26 27 -17 12 -30 18
-30 14z"/>
<path d="M5845 7219 c11 -7 37 -25 58 -42 21 -16 40 -28 41 -26 6 6 -77 67
-99 74 -19 6 -19 6 0 -6z"/>
<path d="M6035 7078 c22 -18 57 -50 79 -70 21 -21 43 -38 48 -38 12 0 -121
119 -147 131 -11 5 -2 -5 20 -23z"/>
<path d="M6187 6939 c12 -12 24 -21 27 -18 2 2 -8 13 -22 23 l-27 19 22 -24z"/>
<path d="M780 6680 c0 -28 115 -130 188 -168 165 -85 281 -109 602 -126 219
-11 238 -14 280 -36 28 -16 55 -42 75 -74 27 -45 30 -57 30 -135 0 -69 -5 -94
-22 -127 -44 -83 -136 -128 -250 -122 l-58 3 -3 183 -2 182 -75 0 c-69 0 -209
15 -247 26 -17 5 -18 -16 -18 -350 l0 -356 253 0 c170 1 277 5 330 15 174 31
315 133 387 279 46 93 60 156 60 270 0 252 -135 438 -375 517 -69 23 -78 23
-612 27 -403 2 -543 0 -543 -8z"/>
<path d="M3512 6670 c-138 -25 -253 -84 -338 -172 -95 -99 -135 -198 -135
-337 -1 -123 19 -195 78 -290 75 -119 218 -215 368 -246 145 -30 331 -15 458
38 200 82 319 282 293 491 l-7 56 -280 0 -279 0 0 -85 0 -85 180 0 c203 0 197
3 161 -76 -24 -52 -89 -108 -160 -136 -48 -19 -75 -22 -186 -23 -127 0 -132 1
-199 34 -132 64 -195 152 -204 285 -11 180 89 306 280 351 115 27 289 12 393
-34 l44 -20 46 75 c25 41 45 78 45 83 0 12 -82 46 -170 71 -86 24 -301 35
-388 20z"/>
<path d="M2525 6658 c-3 -7 -4 -242 -3 -523 l3 -510 105 0 105 0 0 520 0 520
-103 3 c-76 2 -104 -1 -107 -10z"/>
<path d="M4570 6145 l0 -525 105 0 105 0 0 525 0 525 -105 0 -105 0 0 -525z"/>
<path d="M5090 6575 l0 -95 190 0 190 0 2 -427 3 -428 105 0 105 0 3 428 2
427 189 0 190 0 3 88 c2 48 2 90 0 95 -2 4 -223 7 -493 7 l-489 0 0 -95z"/>
<path d="M6717 6593 c-19 -43 -76 -163 -125 -268 -221 -469 -322 -688 -322
-696 0 -5 49 -9 108 -9 l109 0 41 90 41 90 303 -2 303 -3 42 -87 42 -88 111 0
c60 0 110 2 110 4 0 2 -38 82 -84 177 -46 96 -111 230 -144 299 -33 69 -103
214 -156 323 -53 109 -96 202 -96 206 0 4 -8 15 -18 24 -15 14 -40 17 -124 17
l-105 0 -36 -77z m263 -384 c58 -121 107 -224 108 -230 2 -5 -83 -9 -217 -9
-122 0 -221 2 -221 4 0 2 39 87 86 188 48 100 95 202 105 226 10 23 22 42 26
42 4 -1 55 -100 113 -221z"/>
<path d="M7740 6145 l0 -525 410 0 410 0 0 95 0 95 -305 0 -305 0 0 430 0 430
-105 0 -105 0 0 -525z"/>
<path d="M1390 4290 l0 -940 190 0 190 0 0 530 0 530 585 0 585 0 0 -530 0
-530 190 0 190 0 0 940 0 940 -190 0 -190 0 0 -245 0 -245 -585 0 -585 0 0
245 0 245 -190 0 -190 0 0 -940z"/>
<path d="M4120 4623 l0 -608 25 -92 c77 -290 268 -473 583 -561 91 -25 110
-27 307 -27 231 0 298 10 448 67 75 29 191 100 247 151 92 83 170 212 212 349
22 72 22 84 26 701 l3 627 -188 -2 -188 -3 -5 -590 c-5 -507 -8 -596 -22 -636
-67 -192 -183 -289 -389 -325 -104 -18 -228 -13 -328 12 -135 35 -234 110
-290 223 -60 117 -61 130 -61 754 l0 567 -190 0 -190 0 0 -607z"/>
<path d="M6760 4290 l0 -940 623 0 c360 0 652 5 692 10 253 37 423 139 501
304 41 86 54 151 54 265 0 189 -74 343 -217 452 l-32 24 34 54 c56 88 70 142
69 261 0 89 -4 114 -26 168 -77 187 -256 297 -538 332 -49 6 -312 10 -622 10
l-538 0 0 -940z m1173 579 c66 -22 118 -64 137 -110 7 -16 11 -58 8 -98 -3
-55 -9 -76 -32 -110 l-29 -41 -438 0 -439 0 0 190 0 190 365 0 c344 0 369 -1
428 -21z m129 -697 c55 -19 120 -72 143 -117 15 -30 20 -60 20 -121 0 -72 -3
-86 -30 -129 -39 -62 -107 -101 -200 -115 -39 -5 -247 -10 -462 -10 l-393 0 0
255 0 256 443 -3 c320 -3 452 -7 479 -16z"/>
<path d="M4205 3056 c-127 -40 -188 -118 -188 -241 0 -107 68 -202 175 -241
67 -25 191 -23 253 5 84 37 130 93 146 176 4 22 5 52 2 68 l-5 27 -134 0 -134
0 0 -45 0 -45 85 0 c99 0 108 -11 51 -65 -79 -74 -257 -53 -311 37 -25 43 -26
122 -1 165 42 69 161 100 268 69 67 -19 68 -19 68 -4 0 6 7 19 16 29 25 28 11
44 -53 62 -69 20 -181 21 -238 3z"/>
<path d="M4710 3059 c0 -4 47 -87 105 -186 105 -180 105 -180 105 -246 l0 -67
55 0 55 0 0 68 c1 67 1 68 104 247 57 99 102 182 101 185 -2 3 -28 4 -57 2
l-55 -4 -32 -61 c-80 -153 -114 -208 -121 -200 -5 4 -39 64 -76 133 -37 69
-68 127 -70 128 -5 7 -114 7 -114 1z"/>
<path d="M3470 2810 l0 -250 215 0 215 0 0 45 0 45 -165 0 -165 0 0 70 0 70
145 0 145 0 0 45 0 45 -145 0 -145 0 0 44 c0 57 4 58 168 56 70 -1 135 -1 145
-1 13 1 17 10 17 41 l0 40 -215 0 -215 0 0 -250z"/>
<path d="M5390 2810 l0 -250 50 0 49 0 3 68 3 67 130 5 c96 4 138 10 161 22
124 68 124 263 0 319 -35 16 -67 19 -218 19 l-178 0 0 -250z m312 160 c96 -27
89 -151 -10 -181 -21 -6 -73 -9 -117 -7 l-80 3 -3 84 c-2 46 -1 90 2 98 7 16
152 18 208 3z"/>
<path d="M6005 3020 c0 -45 -8 -42 113 -42 l72 1 0 -210 0 -209 50 0 50 0 2
208 3 207 93 3 92 3 0 39 0 40 -238 0 -237 0 0 -40z"/>
<path d="M1785 3010 c10 -11 19 -20 21 -20 1 0 0 9 -3 20 -3 11 -12 20 -21 20
-13 0 -12 -3 3 -20z"/>
<path d="M1816 3015 c4 -8 8 -15 10 -15 2 0 4 7 4 15 0 8 -4 15 -10 15 -5 0
-7 -7 -4 -15z"/>
<path d="M1845 3020 c-4 -6 3 -10 14 -10 25 0 27 6 6 13 -8 4 -17 2 -20 -3z"/>
<path d="M1916 2985 c34 -45 41 -45 12 0 -13 19 -27 35 -31 35 -4 0 4 -16 19
-35z"/>
<path d="M6862 2817 c-32 -34 -31 -125 1 -162 19 -23 31 -27 78 -27 30 0 65 6
77 13 47 29 50 144 4 179 -37 30 -131 28 -160 -3z"/>
<path d="M2070 2816 c0 -2 8 -10 18 -17 15 -13 16 -12 3 4 -13 16 -21 21 -21
13z"/>
<path d="M2195 2692 c27 -29 50 -52 52 -52 10 0 -17 32 -56 65 l-46 39 50 -52z"/>
<path d="M7140 2723 c-25 -10 -40 -37 -35 -61 3 -13 2 -21 -2 -19 -4 3 -6 -26
-5 -65 2 -38 5 -68 7 -66 2 2 5 40 6 84 3 76 4 82 31 101 42 30 159 32 190 4
12 -12 24 -19 26 -16 3 3 -5 14 -18 25 -19 17 -37 20 -104 19 -45 0 -88 -3
-96 -6z"/>
<path d="M2275 2610 c3 -5 11 -10 16 -10 6 0 7 5 4 10 -3 6 -11 10 -16 10 -6
0 -7 -4 -4 -10z"/>
<path d="M2336 2560 c16 -16 34 -30 39 -30 6 0 -4 14 -22 30 -41 39 -55 39
-17 0z"/>
<path d="M2419 2501 c13 -12 28 -21 35 -21 12 0 -5 14 -39 31 -16 8 -15 6 4
-10z"/>
<path d="M2525 2424 c36 -28 61 -36 30 -10 -16 14 -34 26 -40 26 -5 -1 -1 -8
10 -16z"/>
<path d="M2643 2345 c32 -19 62 -35 68 -35 5 0 9 -4 9 -8 0 -8 84 -52 98 -52
11 1 -211 130 -223 130 -5 0 16 -16 48 -35z"/>
<path d="M2835 2240 c3 -5 11 -10 16 -10 6 0 7 5 4 10 -3 6 -11 10 -16 10 -6
0 -7 -4 -4 -10z"/>
<path d="M2921 2197 c26 -12 62 -28 80 -36 19 -8 36 -17 39 -21 3 -3 34 -17
70 -29 36 -13 72 -26 80 -29 8 -3 17 -6 20 -7 25 -6 87 -29 95 -35 16 -11 135
-34 142 -26 3 3 -2 6 -11 6 -27 0 -336 105 -408 138 -106 50 -136 62 -145 61
-4 0 13 -10 38 -22z"/>
<path d="M5085 2089 c-340 -121 -765 -177 -1135 -150 -152 11 -361 41 -430 61
-19 5 -42 10 -50 10 -36 -1 22 -20 106 -35 285 -52 482 -66 719 -52 99 5 203
10 232 11 28 0 47 4 41 7 -9 6 61 19 127 24 17 1 59 10 95 20 36 10 74 19 85
20 11 1 34 7 50 15 17 7 60 21 97 31 37 10 76 23 87 28 11 6 27 8 37 4 13 -5
15 -3 9 7 -6 10 -2 11 21 6 21 -5 25 -4 14 4 -12 7 -7 10 20 10 19 0 42 5 50
10 38 25 -74 5 -175 -31z"/>
<path d="M5286 2119 c4 -7 24 -9 50 -6 24 2 41 1 38 -4 -4 -7 54 8 64 17 2 1
-33 2 -78 3 -57 1 -79 -2 -74 -10z"/>
</g>
</svg>
